<svg xmlns="http://www.w3.org/2000/svg" xmlns:xlink="http://www.w3.org/1999/xlink" width="512" height="512" viewBox="0 0 512 512"><defs><clipPath id="a"><path d="M360.84-356.9,276.176-16.642a66.862,66.862,0,0,1-65.388,52.9H118.578A30.387,30.387,0,0,1,88.862-.472l84.664-340.256a66.862,66.862,0,0,1,65.389-52.9h92.209A30.388,30.388,0,0,1,360.84-356.9Z" transform="translate(-88.181 393.628)" fill="#6166f2"/></clipPath><clipPath id="b"><path d="M398.781-374.279,363.833-210.644A110.915,110.915,0,0,1,255.365-122.89H181.019a16,16,0,0,1-15.652-19.349l34.944-163.635a110.92,110.92,0,0,1,108.472-87.754H383.13A16.006,16.006,0,0,1,398.781-374.279Z" transform="translate(-165.008 393.628)" fill="#6166f2"/></clipPath><clipPath id="d"><rect width="512" height="512"/></clipPath></defs><g id="c" clip-path="url(#d)"><rect width="512" height="512" fill="rgba(255,255,255,0)"/><g transform="translate(-39.181 -1.647)"><g transform="translate(43.181 42.703)"><g transform="translate(0 0)" clip-path="url(#a)"><path d="M360.84-356.9,276.176-16.642a66.862,66.862,0,0,1-65.388,52.9H118.578A30.387,30.387,0,0,1,88.862-.472l84.664-340.256a66.862,66.862,0,0,1,65.389-52.9h92.209A30.388,30.388,0,0,1,360.84-356.9" transform="translate(-88.181 393.628)" fill="#6166f2"/></g></g><g transform="translate(317.049 42.703)"><g transform="translate(0 0)" clip-path="url(#b)"><path d="M398.781-374.279,363.833-210.644A110.915,110.915,0,0,1,255.365-122.89H181.019a16,16,0,0,1-15.652-19.349l34.944-163.635a110.92,110.92,0,0,1,108.472-87.754H383.13a16.006,16.006,0,0,1,15.652,19.349" transform="translate(-165.008 393.628)" fill="#6166f2"/></g></g></g></g></svg>