<svg xmlns="http://www.w3.org/2000/svg" xmlns:xlink="http://www.w3.org/1999/xlink" width="330" height="85" viewBox="0 0 330 85"><defs><clipPath id="a"><path d="M136.21-387.158,121.3-327.223a11.778,11.778,0,0,1-11.518,9.318H93.535a5.353,5.353,0,0,1-5.234-6.47l14.914-59.936a11.778,11.778,0,0,1,11.518-9.318h16.243A5.353,5.353,0,0,1,136.21-387.158Z" transform="translate(-88.181 393.628)" fill="#6166f2"/></clipPath><clipPath id="b"><path d="M206.187-390.22,200.031-361.4a19.537,19.537,0,0,1-19.106,15.458h-13.1a2.819,2.819,0,0,1-2.757-3.408l6.155-28.824a19.538,19.538,0,0,1,19.107-15.458h13.1A2.819,2.819,0,0,1,206.187-390.22Z" transform="translate(-165.008 393.628)" fill="#6166f2"/></clipPath><clipPath id="d"><rect width="330" height="85"/></clipPath></defs><g id="c" clip-path="url(#d)"><rect width="330" height="85" fill="rgba(255,255,255,0)"/><g transform="translate(-30.181 -22)"><g transform="translate(-9 -15.566)"><g transform="translate(43.181 42.703)"><g transform="translate(0 0)" clip-path="url(#a)"><path d="M136.21-387.158,121.3-327.223a11.778,11.778,0,0,1-11.518,9.318H93.535a5.353,5.353,0,0,1-5.234-6.47l14.914-59.936a11.778,11.778,0,0,1,11.518-9.318h16.243a5.353,5.353,0,0,1,5.234,6.47" transform="translate(-88.181 393.628)" fill="#6166f2"/></g></g><g transform="translate(91.423 42.703)"><g transform="translate(0 0)" clip-path="url(#b)"><path d="M206.187-390.22,200.031-361.4a19.537,19.537,0,0,1-19.106,15.458h-13.1a2.819,2.819,0,0,1-2.757-3.408l6.155-28.824a19.538,19.538,0,0,1,19.107-15.458h13.1a2.819,2.819,0,0,1,2.757,3.408" transform="translate(-165.008 393.628)" fill="#6166f2"/></g></g></g><text transform="translate(145 88)" fill="#6166f2" font-size="64" font-family="Poppins-Medium, Poppins" font-weight="500"><tspan x="0" y="0">Pezala</tspan></text></g></g></svg>